<svg width="67" height="66" viewBox="0 0 67 66" fill="none" xmlns="http://www.w3.org/2000/svg">
<rect width="66" height="66" rx="33" transform="matrix(-1 0 0 1 66.5 0)" fill="white" fill-opacity="0.05"/>
<rect x="-0.764285" y="0.764285" width="64.4714" height="64.4714" rx="32.2357" transform="matrix(-1 0 0 1 64.9714 0)" stroke="white" stroke-opacity="0.2" stroke-width="1.52857"/>
<path d="M33.7627 18.2547C30.5198 18.198 27.3514 19.2303 24.7641 21.1863C22.1769 23.1424 20.32 25.9093 19.4904 29.0448C18.6608 32.1804 18.9064 35.5036 20.1878 38.4832C21.4692 41.4628 23.7126 43.9268 26.5592 45.4813C26.6168 45.5126 26.68 45.5323 26.7451 45.5391C26.8103 45.546 26.8762 45.5399 26.939 45.5213C27.0018 45.5027 27.0603 45.4719 27.1113 45.4307C27.1622 45.3895 27.2045 45.3386 27.2358 45.281C27.267 45.2234 27.2866 45.1604 27.2935 45.0952C27.3004 45.03 27.2943 44.9641 27.2757 44.9013C27.2571 44.8385 27.2263 44.7799 27.1851 44.729C27.1439 44.6781 27.093 44.6358 27.0354 44.6046C24.3756 43.1632 22.2773 40.8697 21.0776 38.0924C19.8779 35.3151 19.6464 32.2152 20.4203 29.2905C21.1942 26.3658 22.9285 23.7861 25.3448 21.9657C27.7612 20.1452 30.7192 19.1896 33.7438 19.2525C36.7636 19.3083 39.6774 20.3751 42.0193 22.2824C44.3612 24.1896 45.9959 26.8271 46.6619 29.773C47.328 32.7189 46.9869 35.8031 45.6933 38.5323C44.3997 41.2615 42.2283 43.478 39.5263 44.8275C39.4675 44.857 39.4151 44.8979 39.372 44.9477C39.329 44.9975 39.2962 45.0552 39.2755 45.1177C39.2548 45.1802 39.2466 45.246 39.2513 45.3117C39.2561 45.3773 39.2738 45.4415 39.3033 45.5003C39.3328 45.5591 39.3737 45.6114 39.4235 45.6545C39.4732 45.6975 39.531 45.7303 39.5935 45.751C39.656 45.7717 39.7219 45.78 39.7875 45.7752C39.8532 45.7705 39.9172 45.7527 39.976 45.7232C42.8786 44.2735 45.2111 41.8924 46.6006 38.9605C47.9901 36.0287 48.3563 32.7156 47.6405 29.5511C46.9248 26.3865 45.1686 23.5535 42.6527 21.5049C40.1368 19.4563 37.0066 18.3143 33.7627 18.2547Z" fill="white"/>
<path d="M33.8269 20.2541C31.1201 20.1845 28.4639 20.9955 26.2576 22.5652C24.0514 24.1348 22.4143 26.3783 21.5927 28.9583C20.771 31.5383 20.8092 34.3154 21.7014 36.8718C22.5937 39.4283 24.2917 41.626 26.5403 43.1344C26.5949 43.1709 26.6561 43.1963 26.7205 43.2091C26.7849 43.2219 26.8512 43.2219 26.9156 43.2091C26.98 43.1963 27.0413 43.1709 27.0959 43.1344C27.1504 43.098 27.1973 43.0511 27.2338 42.9965C27.2703 42.9419 27.2956 42.8806 27.3085 42.8162C27.3213 42.7518 27.3213 42.6856 27.3085 42.6212C27.2956 42.5568 27.2703 42.4955 27.2338 42.4409C27.1973 42.3863 27.1504 42.3395 27.0959 42.303C25.0246 40.9168 23.4598 38.8951 22.6373 36.5424C21.8148 34.1898 21.7791 31.6335 22.5356 29.2588C23.292 26.884 24.7997 24.8194 26.8315 23.376C28.8633 21.9325 31.3091 21.1883 33.8005 21.2556C36.2926 21.3187 38.6966 22.1901 40.6504 23.7384C42.6041 25.2867 44.0017 27.4281 44.6325 29.8398C45.2633 32.2516 45.093 34.803 44.1475 37.1096C43.2019 39.4162 41.5323 41.3529 39.3902 42.628C39.2764 42.6957 39.1942 42.8057 39.1616 42.934C39.129 43.0623 39.1487 43.1983 39.2163 43.3121C39.284 43.4258 39.3941 43.5081 39.5223 43.5407C39.6506 43.5733 39.7866 43.5535 39.9004 43.4859C42.2223 42.0962 44.0308 39.991 45.0545 37.4861C46.0782 34.9813 46.2618 32.2119 45.5777 29.5938C44.8937 26.9757 43.379 24.6501 41.2609 22.9661C39.1428 21.282 36.5318 20.3305 33.8269 20.2541Z" fill="white"/>
<path d="M33.7893 23.7575C31.533 23.6819 29.254 24.4528 27.4588 26.078C25.7304 27.6449 24.6774 29.8214 24.5216 32.1491C24.3658 34.4769 25.1193 36.7742 26.6236 38.5575C26.6657 38.6076 26.7174 38.649 26.7755 38.6792C26.8337 38.7093 26.8972 38.7277 26.9625 38.7333C27.0278 38.7389 27.0935 38.7316 27.156 38.7118C27.2184 38.692 27.2764 38.6601 27.3265 38.6179C27.3766 38.5757 27.418 38.5241 27.4481 38.4659C27.4783 38.4078 27.4967 38.3442 27.5023 38.279C27.508 38.2137 27.5007 38.148 27.4809 38.0855C27.4611 38.0231 27.4292 37.9651 27.387 37.9149C26.0462 36.3306 25.3743 34.287 25.5132 32.2161C25.6522 30.1453 26.5911 28.2098 28.1315 26.8188C29.6675 25.4253 31.6852 24.6837 33.758 24.7507C35.8308 24.8177 37.7963 25.6881 39.2391 27.1778C42.2437 30.2769 42.2551 35.1825 39.2656 38.2929C39.216 38.3397 39.1765 38.3962 39.1494 38.459C39.1223 38.5217 39.1082 38.5894 39.108 38.6578C39.1077 38.7263 39.1214 38.794 39.1481 38.8569C39.1747 38.9198 39.2139 38.9767 39.2631 39.0238C39.3123 39.071 39.3706 39.1075 39.4343 39.1312C39.498 39.1549 39.5658 39.1652 39.6337 39.1615C39.7015 39.1578 39.7678 39.1403 39.8287 39.1098C39.8895 39.0794 39.9435 39.0368 39.9874 38.9846C41.1889 37.7288 42.0014 36.1522 42.3269 34.4449C42.6523 32.7376 42.4769 30.9727 41.8216 29.3629C41.1664 27.7532 40.0593 26.3674 38.6341 25.3728C37.2088 24.3782 35.5262 23.8172 33.7893 23.7575Z" fill="white"/>
<path d="M32.5004 26.248C32.1031 26.25 31.7226 26.4087 31.4417 26.6897C31.1607 26.9706 31.002 27.3512 31 27.7485C31 28.5724 31.6803 29.2488 32.5004 29.2488H34.4997C35.3198 29.2488 36.0001 28.5686 36.0001 27.7485C35.9982 27.3512 35.8394 26.9706 35.5585 26.6897C35.2775 26.4087 34.897 26.25 34.4997 26.248H32.5004ZM32.5004 27.2495H34.4997C34.5655 27.2485 34.6308 27.2607 34.6918 27.2854C34.7528 27.3101 34.8082 27.3468 34.8548 27.3933C34.9013 27.4399 34.938 27.4953 34.9627 27.5563C34.9874 27.6173 34.9996 27.6827 34.9986 27.7485C35.0001 27.8146 34.9883 27.8802 34.9638 27.9417C34.9394 28.0031 34.9027 28.059 34.8561 28.1059C34.8096 28.1528 34.754 28.19 34.6927 28.2149C34.6315 28.2398 34.5658 28.2521 34.4997 28.2511H32.4967C32.4305 28.2521 32.3649 28.2398 32.3036 28.2149C32.2424 28.19 32.1868 28.1528 32.1402 28.1059C32.0937 28.059 32.057 28.0031 32.0325 27.9417C32.0081 27.8802 31.9962 27.8146 31.9978 27.7485C31.9967 27.6824 32.0091 27.6166 32.034 27.5554C32.0589 27.4942 32.096 27.4385 32.1429 27.392C32.1899 27.3454 32.2457 27.3088 32.3072 27.2844C32.3686 27.2599 32.4343 27.248 32.5004 27.2495ZM37.6593 37.7562L37.0206 38.5272C38.2753 39.5703 38.9972 41.1198 38.9972 42.7525V47.7489H39.9987V42.7488C39.9987 40.8213 39.1408 38.9959 37.6593 37.76V37.7562ZM28.8382 37.7676C28.1067 38.3771 27.518 39.1398 27.1138 40.0018C26.7095 40.8639 26.4996 41.8042 26.4988 42.7563V47.7527H27.5003V42.7563C27.5003 41.1274 28.226 39.5816 29.4769 38.5385L28.8382 37.7676Z" fill="white"/>
<path d="M32.9994 34.7517C30.5201 34.7517 28.502 36.7699 28.502 39.2492V44.2493C28.502 45.0732 29.1785 45.7497 29.9986 45.7497H36.4991C37.323 45.7497 37.9995 45.0694 37.9995 44.2493V39.2492C37.9995 36.7699 35.9776 34.7517 33.5021 34.7517H32.9994ZM32.9994 35.7494H33.4983C35.4371 35.7494 36.998 37.3104 36.998 39.2492V44.2493C36.999 44.3151 36.9868 44.3803 36.9621 44.4413C36.9374 44.5023 36.9007 44.5578 36.8542 44.6043C36.8076 44.6508 36.7522 44.6875 36.6912 44.7123C36.6302 44.737 36.5649 44.7491 36.4991 44.7481H29.9986C29.9328 44.7491 29.8675 44.737 29.8065 44.7123C29.7455 44.6875 29.6901 44.6508 29.6436 44.6043C29.597 44.5578 29.5603 44.5023 29.5356 44.4413C29.5109 44.3803 29.4987 44.3151 29.4997 44.2493V39.2492C29.4997 37.3104 31.0606 35.7494 32.9994 35.7494Z" fill="white"/>
<path fill-rule="evenodd" clip-rule="evenodd" d="M32.3757 37.197V38.1985H34.375V37.197H32.3757Z" fill="white"/>
</svg>
