<svg width="67" height="66" viewBox="0 0 67 66" fill="none" xmlns="http://www.w3.org/2000/svg">
<rect width="66" height="66" rx="33" transform="matrix(-1 0 0 1 66.5 0)" fill="white" fill-opacity="0.05"/>
<rect x="-0.764285" y="0.764285" width="64.4714" height="64.4714" rx="32.2357" transform="matrix(-1 0 0 1 64.9714 0)" stroke="white" stroke-opacity="0.2" stroke-width="1.52857"/>
<g clip-path="url(#clip0_157_2310)">
<path d="M43.9715 23.0428C42.7163 21.7875 40.8334 21.3557 39.0575 21.9156L33.5 23.6682L27.9425 21.9156C26.1666 21.3556 24.2837 21.7875 23.0285 23.0428L19.3563 26.7147C17.4548 28.6164 17.5521 31.8111 19.5734 33.8363C21.7925 36.0596 24.1859 38.457 26.1812 40.452C26.0889 40.7997 26.0888 41.1655 26.181 41.5133C26.2731 41.8611 26.4544 42.1789 26.7068 42.4353L26.7335 42.4621C26.9244 42.6516 27.1508 42.8016 27.3998 42.9033C27.6487 43.0051 27.9154 43.0566 28.1843 43.0549C28.3654 43.0547 28.5457 43.032 28.7211 42.9874L28.9336 43.1988C29.2482 43.5136 29.6479 43.7295 30.0836 43.8199C30.4582 44.1494 30.941 44.3295 31.4398 44.3256C31.4652 44.3256 31.4906 44.3251 31.516 44.3243C32.0909 44.3022 32.6358 44.0621 33.04 43.6528L33.5 43.1923L33.9605 43.6528C34.3647 44.0621 34.9097 44.3022 35.4845 44.3243C35.51 44.3251 35.5353 44.3256 35.5607 44.3256C36.0583 44.3292 36.54 44.1499 36.9142 43.8218C37.3505 43.73 37.7508 43.5136 38.0667 43.1988L38.2802 42.9863C38.6283 43.0787 38.9945 43.0789 39.3428 42.987C39.6911 42.8951 40.0094 42.7142 40.2667 42.4621L40.293 42.4356C40.5447 42.1789 40.7254 41.8612 40.8174 41.5136C40.9095 41.166 40.9097 40.8005 40.818 40.4528C42.795 38.4764 45.1581 36.1094 47.4267 33.8365C49.448 31.8115 49.5454 28.6166 47.6435 26.7149L43.9715 23.0428ZM27.4408 41.7553L27.4141 41.7285C27.3551 41.6694 27.3038 41.6031 27.2613 41.5313L27.6388 41.9083C27.5667 41.8658 27.5002 41.8143 27.4408 41.7551V41.7553ZM32.3324 42.9458C32.2697 43.0084 32.2009 43.0645 32.127 43.1135C32.3371 42.862 32.4823 42.5629 32.55 42.2423L32.793 42.4853L32.3324 42.9458ZM39.5858 41.7287L39.5594 41.7551C39.1309 42.1836 38.3975 42.1475 37.9245 41.6746L30.2457 33.9956C30.1995 33.9484 30.1443 33.9107 30.0834 33.8849C30.0226 33.8591 29.9572 33.8456 29.891 33.8452C29.8249 33.8449 29.7594 33.8576 29.6982 33.8828C29.637 33.9079 29.5814 33.9449 29.5347 33.9917C29.4879 34.0384 29.4509 34.094 29.4258 34.1552C29.4006 34.2163 29.3879 34.2819 29.3882 34.348C29.3886 34.4142 29.4021 34.4796 29.4279 34.5404C29.4537 34.6013 29.4914 34.6565 29.5387 34.7027L36.2212 41.3853L36.2246 41.3888C36.4546 41.614 36.5901 41.9184 36.6038 42.24C36.6118 42.3846 36.5893 42.5293 36.5376 42.6645C36.4859 42.7998 36.4062 42.9227 36.3038 43.0251C36.2014 43.1274 36.0786 43.2071 35.9433 43.2588C35.808 43.3104 35.6634 43.333 35.5188 43.325C35.1972 43.3114 34.8928 43.1758 34.6675 42.9458L33.8535 42.1318L27.9816 36.26C27.8878 36.1662 27.7606 36.1135 27.628 36.1135C27.4954 36.1135 27.3682 36.1662 27.2745 36.26C27.1807 36.3537 27.128 36.4809 27.128 36.6135C27.128 36.7461 27.1807 36.8733 27.2745 36.9671L31.2131 40.9057L31.2158 40.9084C31.4457 41.1337 31.5813 41.438 31.5949 41.7596C31.6021 41.9038 31.5793 42.0479 31.5279 42.1828C31.4765 42.3177 31.3976 42.4404 31.2963 42.5432L31.2713 42.5682C30.8438 42.9956 30.1115 42.9606 29.6389 42.4902C29.5011 42.353 29.3567 42.2093 29.2057 42.059L29.2032 42.0564C28.6139 41.4692 27.931 40.7873 27.1857 40.0423C27.144 39.9732 27.086 39.9153 27.0169 39.8736C24.9966 37.854 22.5482 35.4015 20.2811 33.1298C18.649 31.4946 18.5514 28.934 20.0636 27.4218L23.7356 23.75C24.7261 22.7595 26.2228 22.4221 27.6418 22.8695L31.8375 24.1925L29.4938 24.9316C29.3848 24.9659 29.2909 25.0366 29.2276 25.1318C29.1644 25.227 29.1357 25.341 29.1463 25.4548L29.2035 26.0685C29.2177 26.4495 29.3099 26.8236 29.4743 27.1677C29.6387 27.5118 29.8718 27.8185 30.1593 28.069C30.4541 28.3236 30.798 28.5147 31.1699 28.6305C31.5417 28.7462 31.9333 28.7842 32.3205 28.742L32.6536 28.7093L33.1467 29.203L40.0113 36.0774C40.4836 36.5503 40.5194 37.2836 40.0912 37.7116L40.0885 37.7143C39.6702 38.1298 38.9641 38.1049 38.4916 37.6656C37.7125 36.8865 36.8631 36.0375 36.0563 35.2312C34.2474 33.423 32.6852 31.8615 32.5342 31.7095C32.4406 31.6161 32.3139 31.5636 32.1817 31.5635C32.0495 31.5633 31.9227 31.6155 31.8289 31.7087C31.7351 31.8018 31.6819 31.9283 31.6811 32.0605C31.6803 32.1926 31.7319 32.3198 31.8246 32.414C31.9769 32.5675 33.5397 34.1296 35.3496 35.9385L37.7286 38.3165C37.7352 38.3239 37.742 38.3312 37.7492 38.3383C37.7645 38.3538 37.7804 38.3689 37.7958 38.3838C38.4333 39.0213 39.024 39.6117 39.506 40.0937C39.9785 40.5666 40.0145 41.3 39.5858 41.7286V41.7287ZM46.7188 33.1298C44.536 35.3168 42.2653 37.5913 40.3358 39.5206C40.2967 39.475 40.2561 39.4301 40.2128 39.3868C40.0797 39.2536 39.9383 39.1121 39.7898 38.9638C40.1717 38.8839 40.5219 38.6946 40.7979 38.419L40.8017 38.4153C41.6159 37.597 41.5792 36.2324 40.7188 35.3708L34.2063 28.8494L34.6563 28.3985C34.7291 28.3256 34.7776 28.232 34.7952 28.1304C34.8127 28.0289 34.7985 27.9244 34.7545 27.8313C34.7104 27.7382 34.6387 27.6609 34.549 27.6101C34.4594 27.5593 34.3563 27.5375 34.2537 27.5475L32.2225 27.7467C31.9707 27.7751 31.7158 27.7514 31.4736 27.677C31.2315 27.6026 31.0072 27.4791 30.8148 27.3142C30.6288 27.1511 30.4783 26.9514 30.3727 26.7275C30.2672 26.5037 30.2089 26.2605 30.2015 26.0131C30.2015 26.0047 30.2006 25.9962 30.1998 25.9878L30.179 25.7639L33.641 24.6721L33.6427 24.6716L39.3579 22.8694C40.7767 22.4218 42.2735 22.7593 43.2642 23.7498L46.9361 27.4218C48.4486 28.934 48.351 31.4946 46.7188 33.1298Z" fill="white"/>
</g>
<defs>
<clipPath id="clip0_157_2310">
<rect width="32" height="32" fill="white" transform="translate(17.5 17)"/>
</clipPath>
</defs>
</svg>
