<svg width="67" height="66" viewBox="0 0 67 66" fill="none" xmlns="http://www.w3.org/2000/svg">
<rect width="66" height="66" rx="33" transform="matrix(-1 0 0 1 66.5 0)" fill="white" fill-opacity="0.05"/>
<rect x="-0.764285" y="0.764285" width="64.4714" height="64.4714" rx="32.2357" transform="matrix(-1 0 0 1 64.9714 0)" stroke="white" stroke-opacity="0.2" stroke-width="1.52857"/>
<g clip-path="url(#clip0_157_2319)">
<path d="M43.5436 42.2832H24.2168V22.9564C24.2168 22.5446 23.8683 22.196 23.4564 22.196C23.0446 22.196 22.696 22.5446 22.696 22.9564V43.0436C22.696 43.4554 23.0446 43.804 23.4564 43.804H43.5436C43.9554 43.804 44.304 43.4554 44.304 43.0436C44.304 42.6317 43.9554 42.2832 43.5436 42.2832Z" fill="white"/>
<path d="M31.5991 39.3367V28.3743C31.5991 27.9624 31.2506 27.6139 30.8387 27.6139C30.4268 27.6139 30.0783 27.9624 30.0783 28.3743V39.3683C30.0783 39.7802 30.4268 40.1287 30.8387 40.1287C31.2506 40.1287 31.5991 39.7802 31.5991 39.3367ZM27.9239 39.3367V28.3743C27.9239 27.9624 27.5754 27.6139 27.1635 27.6139C26.7516 27.6139 26.4031 27.9624 26.4031 28.3743V39.3683C26.4031 39.7802 26.7516 40.1287 27.1635 40.1287C27.5754 40.0971 27.9239 39.7802 27.9239 39.3367ZM38.9813 39.3367V28.3743C38.9813 27.9624 38.6328 27.6139 38.2209 27.6139C37.809 27.6139 37.4605 27.9624 37.4605 28.3743V39.3683C37.4605 39.7802 37.809 40.1287 38.2209 40.1287C38.6328 40.0971 38.9813 39.7802 38.9813 39.3367ZM42.6565 39.3367V33.8555C42.6565 33.4436 42.308 33.0951 41.8961 33.0951C41.4843 33.0951 41.1357 33.4436 41.1357 33.8555V39.3367C41.1357 39.7485 41.4843 40.0971 41.8961 40.0971C42.308 40.0971 42.6565 39.7802 42.6565 39.3367ZM35.2744 39.3367V33.8555C35.2744 33.4436 34.9258 33.0951 34.514 33.0951C34.1021 33.0951 33.7536 33.4436 33.7536 33.8555V39.3367C33.7536 39.7485 34.1021 40.0971 34.514 40.0971C34.9258 40.0971 35.2744 39.7802 35.2744 39.3367Z" fill="white"/>
</g>
<defs>
<clipPath id="clip0_157_2319">
<rect width="32" height="32" fill="white" transform="translate(17.5 17)"/>
</clipPath>
</defs>
</svg>
