<svg width="67" height="66" viewBox="0 0 67 66" fill="none" xmlns="http://www.w3.org/2000/svg">
<rect width="66" height="66" rx="33" transform="matrix(-1 0 0 1 66.5 0)" fill="white" fill-opacity="0.05"/>
<rect x="-0.764285" y="0.764285" width="64.4714" height="64.4714" rx="32.2357" transform="matrix(-1 0 0 1 64.9714 0)" stroke="white" stroke-opacity="0.2" stroke-width="1.52857"/>
<path d="M47.1431 45.4288C47.1387 45.5079 47.105 45.5826 47.0487 45.6384L46.1399 46.5472C46.0932 46.5938 46.0338 46.6254 45.9691 46.6382C45.9045 46.651 45.8375 46.6443 45.7766 46.6189C45.7158 46.5935 45.6638 46.5507 45.6274 46.4957C45.5909 46.4408 45.5716 46.3763 45.5719 46.3104C45.5718 46.2667 45.5804 46.2234 45.5972 46.183C45.6139 46.1426 45.6385 46.106 45.6695 46.0752L46.0071 45.7376L21.1559 45.6752C21.0676 45.6752 20.983 45.6401 20.9205 45.5777C20.8581 45.5153 20.8231 45.4306 20.8231 45.3424L20.7623 20.4912L20.4247 20.8288C20.3623 20.8924 20.2772 20.9287 20.1881 20.9296C20.0989 20.9305 20.0131 20.8959 19.9495 20.8336C19.8858 20.7712 19.8496 20.6861 19.8486 20.597C19.8477 20.5078 19.8823 20.422 19.9447 20.3584L20.8599 19.4544L20.8775 19.4368C20.9283 19.3937 20.9906 19.3664 21.0567 19.3584C21.0774 19.356 21.0983 19.356 21.1191 19.3584C21.1993 19.3633 21.275 19.3975 21.3319 19.4544L22.2391 20.36C22.2706 20.391 22.2957 20.4279 22.3129 20.4685C22.3302 20.5092 22.3393 20.5529 22.3396 20.5971C22.34 20.6413 22.3317 20.6852 22.3151 20.7262C22.2985 20.7671 22.2741 20.8044 22.2431 20.836C22.2121 20.8675 22.1752 20.8926 22.1345 20.9098C22.0938 20.9271 22.0501 20.9362 22.0059 20.9365C21.9617 20.9369 21.9179 20.9286 21.8769 20.912C21.8359 20.8954 21.7986 20.871 21.7671 20.84L21.4295 20.5024L21.4903 45.016L46.0039 45.0768L45.6599 44.7328C45.5962 44.6704 45.56 44.5853 45.5591 44.4962C45.5582 44.407 45.5927 44.3212 45.6551 44.2576C45.7174 44.1939 45.8026 44.1576 45.8917 44.1567C45.9808 44.1558 46.0666 44.1904 46.1303 44.2528L47.0391 45.1616L47.0551 45.1776C47.0989 45.2275 47.1267 45.2893 47.1351 45.3552C47.1409 45.3792 47.1436 45.404 47.1431 45.4288ZM22.9159 37.304V32.1616C22.9157 32.1177 22.9241 32.0743 22.9407 32.0337C22.9574 31.9932 22.9819 31.9563 23.0128 31.9252C23.0437 31.8941 23.0805 31.8695 23.1209 31.8526C23.1614 31.8358 23.2048 31.8272 23.2487 31.8272H24.0487V27.4816C24.0545 27.3971 24.0922 27.318 24.1541 27.2602C24.216 27.2024 24.2976 27.1703 24.3823 27.1703C24.467 27.1703 24.5485 27.2024 24.6104 27.2602C24.6723 27.318 24.71 27.3971 24.7159 27.4816V31.8272H25.4999C25.5438 31.827 25.5874 31.8355 25.6281 31.8522C25.6688 31.8689 25.7057 31.8935 25.7368 31.9246C25.7679 31.9557 25.7925 31.9927 25.8092 32.0333C25.826 32.074 25.8345 32.1176 25.8343 32.1616V37.304C25.8347 37.3481 25.8263 37.3918 25.8097 37.4327C25.7931 37.4735 25.7685 37.5107 25.7374 37.5419C25.7063 37.5732 25.6692 37.598 25.6285 37.6148C25.5877 37.6316 25.544 37.6402 25.4999 37.64H24.7079V41.9856C24.702 42.07 24.6643 42.1492 24.6024 42.2069C24.5405 42.2647 24.459 42.2968 24.3743 42.2968C24.2896 42.2968 24.208 42.2647 24.1461 42.2069C24.0842 42.1492 24.0465 42.07 24.0407 41.9856V37.64H23.2407C23.1532 37.6379 23.0702 37.6014 23.0094 37.5386C22.9486 37.4757 22.915 37.3914 22.9159 37.304ZM23.5799 36.9712H25.1639V32.4912H23.5799V36.9712ZM32.5575 38.5904V33.4464C32.5575 33.3581 32.5925 33.2734 32.6549 33.211C32.7174 33.1486 32.802 33.1136 32.8903 33.1136H33.6903V28.768C33.6961 28.6835 33.7338 28.6044 33.7957 28.5466C33.8576 28.4888 33.9392 28.4567 34.0239 28.4567C34.1086 28.4567 34.1901 28.4888 34.252 28.5466C34.3139 28.6044 34.3516 28.6835 34.3575 28.768V33.1136H35.1575C35.2457 33.1136 35.3304 33.1486 35.3928 33.211C35.4552 33.2734 35.4903 33.3581 35.4903 33.4464V38.5904C35.4903 38.6786 35.4552 38.7633 35.3928 38.8257C35.3304 38.8881 35.2457 38.9232 35.1575 38.9232H34.3575V43.2688C34.3516 43.3532 34.3139 43.4324 34.252 43.4901C34.1901 43.5479 34.1086 43.58 34.0239 43.58C33.9392 43.58 33.8576 43.5479 33.7957 43.4901C33.7338 43.4324 33.6961 43.3532 33.6903 43.2688V38.92H32.8903C32.8028 38.9195 32.7191 38.8847 32.6571 38.8231C32.5951 38.7614 32.5599 38.6778 32.5591 38.5904H32.5575ZM33.2247 38.256H34.8071V33.776H33.2263L33.2247 38.256ZM27.7399 33.4464V28.3024C27.7399 28.2585 27.7485 28.2151 27.7654 28.1746C27.7822 28.1342 27.8068 28.0974 27.8379 28.0665C27.869 28.0355 27.9059 28.0111 27.9464 27.9944C27.987 27.9778 28.0304 27.9694 28.0743 27.9696H28.8599V23.624C28.8657 23.5395 28.9034 23.4604 28.9653 23.4026C29.0272 23.3448 29.1088 23.3127 29.1935 23.3127C29.2782 23.3127 29.3597 23.3448 29.4216 23.4026C29.4835 23.4604 29.5212 23.5395 29.5271 23.624V27.9696H30.3191C30.4073 27.9696 30.492 28.0046 30.5544 28.067C30.6168 28.1294 30.6519 28.2141 30.6519 28.3024V33.4464C30.6519 33.5346 30.6168 33.6193 30.5544 33.6817C30.492 33.7441 30.4073 33.7792 30.3191 33.7792H29.5287V38.12C29.5287 38.2087 29.4934 38.2937 29.4307 38.3564C29.368 38.4191 29.283 38.4544 29.1943 38.4544C29.1056 38.4544 29.0205 38.4191 28.9578 38.3564C28.8951 38.2937 28.8599 38.2087 28.8599 38.12V33.7792H28.0711C27.9831 33.7787 27.8988 33.7435 27.8368 33.6811C27.7747 33.6188 27.7399 33.5343 27.7399 33.4464ZM28.4071 33.1136H29.9911V28.6336H28.4071V33.1136ZM42.2055 36.6608V31.5184C42.2059 31.4298 42.2413 31.345 42.3039 31.2824C42.3665 31.2197 42.4513 31.1844 42.5399 31.184H43.3399V26.84C43.3399 26.7517 43.3749 26.667 43.4373 26.6046C43.4998 26.5422 43.5844 26.5072 43.6727 26.5072C43.7609 26.5072 43.8456 26.5422 43.908 26.6046C43.9704 26.667 44.0055 26.7517 44.0055 26.84V31.184H44.7975C44.886 31.1844 44.9708 31.2197 45.0335 31.2824C45.0961 31.345 45.1314 31.4298 45.1319 31.5184V36.6608C45.1314 36.7493 45.0961 36.8341 45.0335 36.8968C44.9708 36.9594 44.886 36.9947 44.7975 36.9952H44.0055V41.3392C44.0055 41.4274 43.9704 41.5121 43.908 41.5745C43.8456 41.6369 43.7609 41.672 43.6727 41.672C43.5844 41.672 43.4998 41.6369 43.4373 41.5745C43.3749 41.5121 43.3399 41.4274 43.3399 41.3392V37H42.5399C42.4953 37.0002 42.4512 36.9915 42.4101 36.9745C42.3689 36.9576 42.3315 36.9326 42.3001 36.901C42.2687 36.8694 42.2439 36.8319 42.2271 36.7907C42.2103 36.7495 42.2018 36.7053 42.2023 36.6608H42.2055ZM42.8727 36.328H44.4567V31.848H42.8727V36.328ZM37.3847 31.5184V26.3744C37.3847 26.2861 37.4197 26.2014 37.4821 26.139C37.5446 26.0766 37.6292 26.0416 37.7175 26.0416H38.5095V21.696C38.5153 21.6115 38.553 21.5324 38.6149 21.4746C38.6768 21.4168 38.7584 21.3847 38.8431 21.3847C38.9278 21.3847 39.0093 21.4168 39.0712 21.4746C39.1331 21.5324 39.1708 21.6115 39.1767 21.696V26.0416H39.9687C40.0569 26.0416 40.1416 26.0766 40.204 26.139C40.2664 26.2014 40.3015 26.2861 40.3015 26.3744V31.5184C40.3015 31.6066 40.2664 31.6913 40.204 31.7537C40.1416 31.8161 40.0569 31.8512 39.9687 31.8512H39.1767V36.2C39.1708 36.2844 39.1331 36.3636 39.0712 36.4213C39.0093 36.4791 38.9278 36.5112 38.8431 36.5112C38.7584 36.5112 38.6768 36.4791 38.6149 36.4213C38.553 36.3636 38.5153 36.2844 38.5095 36.2V31.8512H37.7175C37.6735 31.8516 37.6299 31.8433 37.5891 31.8268C37.5484 31.8102 37.5113 31.7858 37.4801 31.7548C37.4488 31.7239 37.424 31.687 37.4071 31.6465C37.3902 31.6059 37.3815 31.5623 37.3815 31.5184H37.3847ZM38.0503 31.184H39.6343V26.704H38.0503V31.184Z" fill="white"/>
</svg>
