<?xml version="1.0" encoding="UTF-8"?>
<svg id="Layer_2" data-name="Layer 2" xmlns="http://www.w3.org/2000/svg" viewBox="0 0 611.01 156.52">
  <defs>
    <style>
      .cls-1 {
        fill: #0b4f44;
      }

      .cls-1, .cls-2, .cls-3, .cls-4, .cls-5, .cls-6 {
        stroke-width: 0px;
      }

      .cls-2 {
        fill: #a4a316;
      }

      .cls-3 {
        fill: #c0aa1a;
      }

      .cls-4 {
        fill: #fff;
      }

      .cls-5 {
        fill: #ffab22;
      }

      .cls-6 {
        fill: #ff4a22;
      }
    </style>
  </defs>
  <g id="Layer_1-2" data-name="Layer 1">
    <g>
      <g>
        <polygon class="cls-1" points="125.66 43.46 95.25 13.92 30.54 64.24 34.44 69.27 94.78 22.34 125.2 51.88 178.67 10.29 174.77 5.27 125.66 43.46"/>
        <g>
          <path class="cls-1" d="M147.16,112.21l-2.23-26.41-4.75,17.66.79,9.37-121.01-3.04L11.94,14.7l63.68,8.21,9.97-7.76L7.56,3.1C3,3.11-.37,7.01.03,11.82l8.49,100.65c.41,4.81,4.43,8.7,9,8.7l56.08-.11v7.28c-18.51.8-30.37,6.82-26.95,14.1,3.68,7.81,23.55,14.11,44.38,14.09,20.84-.03,34.75-6.38,31.07-14.19-2.77-5.87-14.7-10.9-29.32-13.01l-1.64-8.29,48.48-.09c4.56,0,7.94-3.92,7.53-8.73Z"/>
          <path class="cls-1" d="M107.04,18.47l10.08,9.79,16.9,2.18.02.22,4.95-3.84c-1.62-2.74-4.52-4.61-7.68-4.6"/>
        </g>
        <polygon class="cls-2" points="128.24 55.79 127.86 56.08 114.37 106.22 135.43 106.23 154.5 35.36 128.24 55.79"/>
        <polygon class="cls-3" points="104.96 39.12 86.9 106.22 107.96 106.22 121.66 55.34 104.96 39.12"/>
        <polygon class="cls-5" points="94.42 28.89 76.11 43.13 59.14 106.21 80.2 106.22 99.64 33.96 94.42 28.89"/>
        <polygon class="cls-6" points="41 70.44 31.37 106.21 52.44 106.21 67.76 49.63 41 70.44"/>
        <path class="cls-5" d="M95.09,13.82c-2.37,0-4.3,1.93-4.3,4.3s1.93,4.3,4.3,4.3,4.3-1.93,4.3-4.3-1.93-4.3-4.3-4.3Z"/>
        <path class="cls-1" d="M95.09,10.29c-4.33,0-7.83,3.51-7.83,7.83s3.51,7.84,7.83,7.84,7.84-3.51,7.84-7.84-3.51-7.83-7.84-7.83ZM95.09,22.42c-2.37,0-4.3-1.93-4.3-4.3s1.93-4.3,4.3-4.3,4.3,1.93,4.3,4.3-1.93,4.3-4.3,4.3Z"/>
        <path class="cls-5" d="M125.36,42.69c-2.37,0-4.3,1.93-4.3,4.3s1.93,4.3,4.3,4.3,4.3-1.93,4.3-4.3-1.93-4.3-4.3-4.3Z"/>
        <path class="cls-1" d="M125.36,39.16c-4.33,0-7.84,3.51-7.84,7.84s3.51,7.84,7.84,7.84,7.84-3.51,7.84-7.84-3.51-7.84-7.84-7.84ZM125.36,51.29c-2.37,0-4.3-1.93-4.3-4.3s1.93-4.3,4.3-4.3,4.3,1.93,4.3,4.3-1.93,4.3-4.3,4.3Z"/>
        <path class="cls-5" d="M32.32,62.69c-2.37,0-4.3,1.93-4.3,4.3s1.93,4.3,4.3,4.3,4.3-1.93,4.3-4.3-1.93-4.3-4.3-4.3Z"/>
        <path class="cls-1" d="M32.32,59.16c-4.33,0-7.84,3.51-7.84,7.84s3.51,7.84,7.84,7.84,7.84-3.51,7.84-7.84-3.51-7.84-7.84-7.84ZM32.32,71.29c-2.37,0-4.3-1.93-4.3-4.3s1.93-4.3,4.3-4.3,4.3,1.93,4.3,4.3-1.93,4.3-4.3,4.3Z"/>
        <path class="cls-5" d="M176.57,3.54c-2.37,0-4.3,1.93-4.3,4.3s1.93,4.3,4.3,4.3,4.3-1.93,4.3-4.3-1.93-4.3-4.3-4.3Z"/>
        <path class="cls-1" d="M176.57,0c-4.33,0-7.84,3.51-7.84,7.84s3.51,7.84,7.84,7.84,7.84-3.51,7.84-7.84-3.51-7.84-7.84-7.84ZM176.57,12.14c-2.37,0-4.3-1.93-4.3-4.3s1.93-4.3,4.3-4.3,4.3,1.93,4.3,4.3-1.93,4.3-4.3,4.3Z"/>
      </g>
      <g>
        <polygon class="cls-4" points="212.42 85.96 223.66 56.96 234.92 85.96 247.85 85.96 265.18 42.83 253.09 42.83 241.17 72.78 230.15 42.83 217.19 42.83 205.93 72.15 194.24 42.83 182.13 42.83 199.49 85.96 212.42 85.96"/>
        <path class="cls-4" d="M314.37,85.96v-28.6c0-2.65-.63-4.95-1.87-6.88-1.24-1.91-2.97-3.51-5.18-4.76-2.21-1.26-4.83-2.18-7.88-2.78-3.06-.59-6.4-.9-10.02-.9-1.83,0-3.76.08-5.77.24s-4,.36-5.97.63c-1.97.27-3.85.58-5.67.92-1.83.36-3.47.72-4.94,1.1v10.36c1.41-.54,2.96-1.06,4.68-1.57,1.71-.5,3.53-.94,5.45-1.31,1.91-.39,3.89-.68,5.95-.9,2.06-.23,4.15-.33,6.26-.33,2.68,0,4.88.17,6.61.51,1.73.33,3.09.76,4.08,1.3.99.54,1.67,1.15,2.06,1.85.37.71.56,1.42.56,2.13v.91c-6.82.37-12.73.9-17.72,1.57s-9.13,1.62-12.39,2.85c-3.26,1.24-5.69,2.82-7.28,4.76-1.59,1.93-2.38,4.35-2.38,7.27,0,2.3.51,4.24,1.53,5.83s2.36,2.88,4.03,3.87c1.67.98,3.6,1.69,5.77,2.13,2.15.44,4.4.66,6.73.66,1.98,0,3.96-.11,5.91-.32,1.95-.23,3.85-.55,5.7-.99,1.83-.44,3.61-.98,5.31-1.61,1.71-.63,3.31-1.35,4.79-2.17v4.24h11.64ZM298.88,74.21c-1.45.7-2.97,1.3-4.6,1.82-1.63.51-3.36.91-5.18,1.2-1.82.29-3.68.44-5.59.44-1.71,0-3.13-.11-4.27-.32-1.12-.2-2.03-.48-2.72-.84-.67-.36-1.15-.78-1.42-1.24-.28-.47-.41-.95-.41-1.46,0-.41.07-.87.2-1.38.15-.51.51-1,1.08-1.51.59-.5,1.47-.99,2.66-1.47,1.18-.48,2.8-.92,4.87-1.35,2.07-.41,4.67-.78,7.8-1.1,3.13-.31,6.93-.55,11.41-.72v5.69c-1.14.79-2.41,1.54-3.84,2.25Z"/>
        <path class="cls-4" d="M330.61,86.23c2.06.28,4.17.5,6.34.66s4.23.24,6.2.24c4.48,0,8.52-.4,12.14-1.19,3.61-.8,6.69-1.95,9.23-3.48,1.99-1.19,3.63-2.58,4.88-4.19-1.47-.62-2.5-2.06-2.5-3.75v-4.59c0-1.58.92-3.01,2.37-3.67,1.11-.51,2.18-1.02,3.2-1.49v-4.48c-.39.13-.8.2-1.22.2-.74,0-1.47-.2-2.11-.6-1.2-.74-1.93-2.03-1.93-3.45v-6.09c0-1.73,1.08-3.26,2.72-3.83.8-.28,1.66-.55,2.54-.78v-2.92h-11.67v10.92c-.82,1-1.79,1.99-2.93,2.96-1.12.96-2.4,1.82-3.79,2.57-1.4.76-2.94,1.36-4.6,1.82-1.66.47-3.43.7-5.29.7-2.19,0-4.07-.23-5.62-.7-1.55-.45-2.81-1.14-3.79-2.02-.96-.88-1.69-1.99-2.13-3.31-.45-1.32-.68-2.84-.68-4.52v-8.42h-11.71v9.58c0,2.88.37,5.47,1.12,7.77.74,2.3,1.99,4.26,3.75,5.86,1.75,1.59,4.09,2.82,7.01,3.67s6.57,1.27,10.95,1.27c3.76,0,7.12-.51,10.08-1.53,2.94-1,5.49-2.3,7.63-3.87v3.79c0,.55-.12,1.14-.33,1.77-.21.63-.59,1.26-1.11,1.9-.52.63-1.22,1.26-2.07,1.85-.86.6-1.94,1.12-3.24,1.59-1.3.45-2.82.82-4.59,1.1-1.77.27-3.81.4-6.14.4-2.46,0-4.8-.11-7.01-.32-2.21-.23-4.28-.54-6.2-.91-1.93-.39-3.72-.84-5.35-1.34-1.65-.51-3.13-1.04-4.48-1.61v10.24c1.24.44,2.76.84,4.56,1.2,1.79.37,3.72.7,5.78.98Z"/>
        <path class="cls-4" d="M433.85,81.72v4.24h11.64v-28.6c0-2.65-.63-4.95-1.87-6.88-1.24-1.91-2.97-3.51-5.18-4.76-2.21-1.26-4.83-2.18-7.89-2.78-3.05-.59-6.38-.9-10.01-.9-1.83,0-3.76.08-5.77.24-2.02.16-4,.36-5.97.63-1.97.27-3.87.58-5.69.92-1.82.36-3.45.72-4.92,1.1v3.85c.7.7,1.3,1.45,1.79,2.26.6.98,1.03,2.05,1.27,3.18.52-.17,1.06-.35,1.62-.51,1.71-.5,3.53-.94,5.45-1.31,1.91-.39,3.89-.68,5.95-.9,2.06-.23,4.15-.33,6.26-.33,2.68,0,4.88.17,6.61.51,1.73.33,3.09.76,4.08,1.3.99.54,1.67,1.15,2.06,1.85.37.71.56,1.42.56,2.13v.91c-6.82.37-12.73.9-17.72,1.57s-9.13,1.62-12.39,2.85c-2.02.78-3.72,1.67-5.1,2.7,1.93.31,3.41,1.97,3.41,3.99v5.54c0,2.23-1.82,4.05-4.05,4.05h-3.18c.21.56.48,1.08.79,1.58,1.02,1.59,2.36,2.88,4.03,3.87,1.67.98,3.6,1.69,5.75,2.13,2.17.44,4.42.66,6.74.66,1.98,0,3.95-.11,5.91-.32,1.95-.23,3.85-.55,5.69-.99,1.85-.44,3.63-.98,5.33-1.61,1.7-.63,3.31-1.35,4.79-2.17ZM420.22,77.24c-1.82.29-3.69.44-5.59.44-1.71,0-3.13-.11-4.27-.32-1.12-.2-2.03-.48-2.72-.84-.67-.36-1.15-.78-1.42-1.24-.28-.47-.41-.95-.41-1.46,0-.41.07-.87.2-1.38s.5-1,1.08-1.51c.59-.5,1.47-.99,2.66-1.47,1.18-.48,2.8-.92,4.87-1.35,2.07-.41,4.67-.78,7.8-1.1,3.13-.31,6.93-.55,11.41-.72v5.69c-1.14.79-2.42,1.54-3.85,2.25-1.43.7-2.96,1.3-4.59,1.82-1.63.51-3.36.91-5.18,1.2Z"/>
        <path class="cls-4" d="M471.14,85.96h24.47v-9.57h-22.09c-1.75,0-3.24-.13-4.44-.39-1.2-.24-2.18-.71-2.93-1.38s-1.3-1.57-1.63-2.72c-.33-1.14-.51-2.61-.51-4.4v-24.67h-11.64v28.97c0,2.45.33,4.56,1.02,6.34.68,1.78,1.78,3.25,3.28,4.4,1.51,1.16,3.45,2.02,5.83,2.58,2.37.55,5.25.83,8.64.83Z"/>
        <path class="cls-4" d="M549.11,83.63v-22.03h-24.7v9.45h13.05v5.21c-.79.23-1.57.45-2.3.66-.74.21-1.54.39-2.38.54-.86.15-1.79.27-2.81.35-1.03.08-2.23.12-3.61.12-2.74,0-5.1-.21-7.09-.64s-3.69-.99-5.1-1.7c-1.42-.72-2.56-1.54-3.44-2.45-.88-.92-1.57-1.89-2.06-2.89-.48-1-.82-2.01-1-3.01-.17-1-.27-1.94-.27-2.8,0-.99.11-1.99.32-3.05.2-1.04.59-2.06,1.12-3.06.55-1.02,1.28-1.95,2.23-2.85.94-.88,2.14-1.66,3.61-2.34,1.46-.67,3.21-1.19,5.27-1.59,2.05-.4,4.46-.6,7.21-.6,2.22,0,4.34.15,6.34.44,2.01.29,3.89.68,5.65,1.16s3.39,1.03,4.88,1.66c1.5.63,2.84,1.28,4.03,1.95v-10.54c-3.04-1.14-6.37-2.06-10-2.78s-7.56-1.08-11.79-1.08c-2.73,0-5.39.19-7.99.56-2.58.37-5,.96-7.28,1.74-2.26.79-4.35,1.79-6.24,3-1.9,1.22-3.52,2.66-4.87,4.34s-2.41,3.6-3.16,5.78c-.75,2.17-1.12,4.6-1.12,7.28s.36,5.12,1.08,7.29c.72,2.17,1.73,4.09,3.04,5.77s2.89,3.12,4.74,4.32c1.86,1.22,3.91,2.22,6.16,3,2.25.79,4.67,1.36,7.27,1.75,2.6.37,5.31.56,8.14.56,1.82,0,3.75-.09,5.81-.25,2.05-.17,4.09-.4,6.13-.71,2.05-.29,4.01-.67,5.93-1.1,1.93-.43,3.65-.91,5.21-1.43Z"/>
        <path class="cls-4" d="M569.56,85.67c3.64.96,7.69,1.46,12.2,1.46s8.55-.5,12.15-1.46c3.61-.98,6.69-2.42,9.22-4.32,2.53-1.9,4.47-4.27,5.83-7.11,1.36-2.84,2.05-6.1,2.05-9.81s-.68-6.97-2.05-9.81c-1.36-2.84-3.31-5.21-5.83-7.11-2.53-1.91-5.61-3.35-9.22-4.32-3.6-.98-7.65-1.46-12.15-1.46s-8.56.48-12.2,1.46c-3.63.98-6.72,2.41-9.27,4.32-2.56,1.9-4.52,4.27-5.9,7.11-1.38,2.84-2.07,6.1-2.07,9.81s.7,6.97,2.07,9.81c1.38,2.84,3.35,5.21,5.9,7.11,2.56,1.9,5.65,3.35,9.27,4.32ZM564.47,61.25c.23-1.08.59-2.11,1.12-3.1.52-1,1.22-1.93,2.1-2.8.87-.87,1.97-1.63,3.26-2.27,1.3-.66,2.84-1.16,4.6-1.53,1.78-.36,3.84-.55,6.2-.55,3.49,0,6.37.4,8.63,1.19,2.26.8,4.04,1.83,5.34,3.1,1.31,1.28,2.22,2.72,2.74,4.32.51,1.59.76,3.2.76,4.82s-.25,3.21-.76,4.82c-.52,1.61-1.43,3.04-2.74,4.31-1.3,1.28-3.08,2.31-5.34,3.12-2.26.79-5.14,1.19-8.63,1.19-2.36,0-4.42-.19-6.2-.55-1.77-.37-3.31-.87-4.6-1.51-1.3-.64-2.4-1.38-3.26-2.25-.88-.86-1.58-1.78-2.1-2.77-.54-.99-.9-2.03-1.12-3.13-.21-1.08-.32-2.15-.32-3.22s.11-2.11.32-3.18Z"/>
        <path class="cls-4" d="M183.97,98.23l-6.89,13.15h3.97l1.23-2.49h7.33l1.23,2.49h3.96l-6.88-13.15h-3.96ZM183.55,106.33l2.41-4.84,2.4,4.84h-4.8Z"/>
        <path class="cls-4" d="M207.77,106.49c-.37.31-.8.62-1.27.9-.48.29-.98.55-1.5.78-.52.23-1.06.4-1.59.54-.52.13-1.03.2-1.53.2-.64,0-1.16-.08-1.57-.24-.4-.15-.71-.37-.94-.66-.23-.28-.37-.63-.45-1.02-.09-.4-.13-.86-.13-1.34v-7.41h-3.55v9.01c0,.68.12,1.31.39,1.86.25.56.63,1.04,1.11,1.43.48.39,1.08.7,1.78.91.71.21,1.5.32,2.38.32.71,0,1.39-.07,2.02-.2.64-.13,1.24-.29,1.81-.51.58-.2,1.11-.44,1.62-.7.5-.25.98-.51,1.42-.78v1.81h3.55v-13.15h-3.55v8.26Z"/>
        <polygon class="cls-4" points="226.83 98.23 212.11 98.23 212.11 101.09 217.69 101.09 217.69 111.38 221.23 111.38 221.23 101.09 226.83 101.09 226.83 98.23"/>
        <path class="cls-4" d="M242.23,99.66c-.78-.59-1.71-1.03-2.81-1.32-1.11-.29-2.34-.44-3.72-.44s-2.61.15-3.72.44c-1.1.29-2.05.74-2.82,1.32-.78.58-1.38,1.3-1.79,2.17-.43.86-.64,1.86-.64,2.98s.21,2.13.64,3c.41.86,1.02,1.58,1.79,2.17.78.58,1.73,1.02,2.82,1.31,1.11.29,2.36.44,3.72.44s2.61-.15,3.72-.44c1.1-.29,2.03-.74,2.81-1.31.76-.59,1.36-1.31,1.78-2.17.41-.87.62-1.86.62-3s-.2-2.13-.62-2.98c-.41-.87-1.02-1.59-1.78-2.17ZM240.8,106.29c-.15.5-.43.92-.83,1.31-.4.39-.94.71-1.63.95-.68.24-1.57.36-2.64.36-.71,0-1.34-.05-1.89-.16-.54-.11-1-.27-1.4-.45-.39-.2-.72-.43-.99-.7-.27-.25-.48-.54-.64-.84-.16-.31-.27-.62-.33-.95-.07-.33-.11-.66-.11-.99s.04-.64.11-.96c.07-.33.17-.66.33-.95.16-.31.37-.59.64-.86.27-.27.6-.5.99-.7.4-.2.87-.35,1.4-.45.55-.12,1.18-.17,1.89-.17,1.07,0,1.95.12,2.64.36.7.24,1.23.56,1.63.95.4.39.68.83.83,1.31.16.5.24.99.24,1.47s-.08.99-.24,1.47Z"/>
        <path class="cls-4" d="M268.24,99.15c-.44-.39-.98-.7-1.61-.92-.64-.23-1.35-.33-2.17-.33-.5,0-.99.04-1.45.13-.47.09-.92.23-1.38.4-.44.17-.88.37-1.32.63-.44.24-.88.51-1.34.8-.16-.24-.35-.47-.56-.7-.23-.24-.48-.44-.8-.63-.31-.2-.67-.35-1.08-.47-.43-.12-.92-.17-1.49-.17s-1.1.05-1.59.17c-.5.11-.96.24-1.39.41s-.83.36-1.2.58c-.36.21-.7.41-1.02.62v-1.45h-3.55v13.15h3.55v-8.74c.33-.28.67-.54,1.03-.76.36-.24.72-.44,1.1-.62.37-.17.75-.31,1.11-.4.37-.09.72-.15,1.06-.15.27,0,.54.04.78.11.24.07.47.17.66.32.19.16.33.36.44.6.11.24.16.55.16.9v8.74h3.56v-8.12c0-.15-.01-.29-.01-.44-.01-.15-.03-.27-.05-.37,1.63-1.15,3.09-1.73,4.36-1.73.28,0,.54.04.79.12.24.07.45.19.64.35.17.16.32.36.43.63.11.25.16.55.16.91v8.66h3.56v-9.17c0-.6-.12-1.16-.35-1.7-.24-.52-.58-.98-1.02-1.36Z"/>
        <path class="cls-4" d="M284.65,99.11c-.67-.39-1.47-.67-2.41-.86-.92-.17-1.94-.27-3.05-.27-.56,0-1.15.03-1.75.08-.62.04-1.23.11-1.82.19-.6.08-1.18.17-1.74.28-.55.11-1.06.21-1.5.33v3.16c.43-.16.9-.32,1.42-.48.54-.15,1.08-.28,1.67-.4.58-.11,1.18-.2,1.81-.27.63-.07,1.27-.11,1.91-.11.82,0,1.49.05,2.02.16.52.09.94.23,1.24.39.29.17.51.36.63.58.11.21.17.43.17.64v.28c-2.09.11-3.89.27-5.41.47-1.53.21-2.78.5-3.79.88-.99.37-1.73.86-2.22,1.45-.48.59-.72,1.32-.72,2.22,0,.7.16,1.28.47,1.78.31.48.72.87,1.23,1.18.51.29,1.1.51,1.75.64.66.13,1.34.2,2.05.2.62,0,1.22-.03,1.81-.09.6-.07,1.18-.17,1.74-.31.56-.13,1.11-.29,1.62-.48.52-.2,1.02-.41,1.47-.67v1.3h3.55v-8.72c0-.8-.19-1.51-.58-2.09-.37-.59-.9-1.08-1.58-1.46ZM283.26,107.12c-.35.24-.74.47-1.18.68s-.91.4-1.4.56c-.5.15-1.03.27-1.58.36-.55.09-1.12.13-1.7.13-.52,0-.96-.03-1.31-.09-.33-.07-.62-.15-.83-.25-.2-.11-.35-.24-.43-.39-.08-.13-.12-.28-.12-.44,0-.12.01-.27.05-.41.04-.16.16-.31.33-.47.17-.15.44-.29.8-.44.36-.15.86-.29,1.5-.41.63-.13,1.42-.24,2.37-.33.96-.09,2.11-.17,3.49-.23v1.74Z"/>
        <polygon class="cls-4" points="287.43 101.09 293.01 101.09 293.01 111.38 296.57 111.38 296.57 101.09 302.16 101.09 302.16 98.23 287.43 98.23 287.43 101.09"/>
        <rect class="cls-4" x="302.94" y="98.23" width="3.55" height="13.15"/>
        <path class="cls-4" d="M323.65,99.66c-.78-.59-1.71-1.03-2.81-1.32-1.1-.29-2.34-.44-3.71-.44s-2.61.15-3.72.44c-1.11.29-2.05.74-2.84,1.32-.78.58-1.38,1.3-1.79,2.17-.43.86-.63,1.86-.63,2.98s.2,2.13.63,3c.41.86,1.02,1.58,1.79,2.17.79.58,1.73,1.02,2.84,1.31,1.11.29,2.34.44,3.72.44s2.61-.15,3.71-.44c1.1-.29,2.03-.74,2.81-1.31.78-.59,1.36-1.31,1.78-2.17.41-.87.63-1.86.63-3s-.21-2.13-.63-2.98c-.41-.87-1-1.59-1.78-2.17ZM322.23,106.29c-.16.5-.44.92-.83,1.31-.4.39-.95.71-1.63.95-.7.24-1.58.36-2.64.36-.72,0-1.35-.05-1.89-.16-.55-.11-1.02-.27-1.4-.45-.4-.2-.74-.43-1-.7-.27-.25-.48-.54-.64-.84-.16-.31-.27-.62-.33-.95s-.11-.66-.11-.99.04-.64.11-.96c.07-.33.17-.66.33-.95.16-.31.37-.59.64-.86s.6-.5,1-.7c.39-.2.86-.35,1.4-.45.54-.12,1.16-.17,1.89-.17,1.06,0,1.94.12,2.64.36.68.24,1.23.56,1.63.95.39.39.67.83.83,1.31.15.5.23.99.23,1.47s-.08.99-.23,1.47Z"/>
        <path class="cls-4" d="M342.29,99.13c-.48-.39-1.07-.7-1.78-.91-.7-.21-1.49-.32-2.37-.32-.71,0-1.39.07-2.02.19-.64.13-1.24.29-1.82.5-.56.21-1.1.44-1.61.7-.5.24-.98.5-1.42.76v-1.81h-3.56v13.15h3.56v-8.26c.36-.31.79-.6,1.26-.9.48-.28.98-.54,1.5-.75.52-.23,1.06-.4,1.59-.52.54-.13,1.04-.2,1.53-.2.64,0,1.16.08,1.57.23.4.16.72.39.95.67.23.28.37.63.45,1.02.09.4.13.84.13,1.34v7.37h3.53v-8.97c0-.68-.12-1.31-.39-1.87-.25-.55-.63-1.03-1.11-1.42Z"/>
        <path class="cls-4" d="M355.27,98.52c-.78.19-1.41.47-1.87.84-.47.36-.8.82-1,1.35-.2.54-.31,1.14-.31,1.82v8.84h3.56v-5.26h9.92v-2.8h-9.92v-.5c0-.41.05-.74.17-.98.12-.24.29-.43.54-.55.23-.12.51-.19.83-.23.33-.03.7-.04,1.12-.04h7.72v-2.81h-7.84c-1.16,0-2.13.09-2.92.29Z"/>
        <path class="cls-4" d="M382.13,99.66c-.78-.59-1.71-1.03-2.81-1.32-1.11-.29-2.34-.44-3.72-.44s-2.61.15-3.72.44c-1.1.29-2.05.74-2.82,1.32-.78.58-1.38,1.3-1.79,2.17-.43.86-.64,1.86-.64,2.98s.21,2.13.64,3c.41.86,1.02,1.58,1.79,2.17.78.58,1.73,1.02,2.82,1.31,1.11.29,2.36.44,3.72.44s2.61-.15,3.72-.44c1.1-.29,2.03-.74,2.81-1.31.76-.59,1.36-1.31,1.78-2.17.41-.87.62-1.86.62-3s-.2-2.13-.62-2.98c-.41-.87-1.02-1.59-1.78-2.17ZM380.7,106.29c-.15.5-.43.92-.83,1.31-.4.39-.94.71-1.63.95-.68.24-1.57.36-2.64.36-.71,0-1.34-.05-1.89-.16-.54-.11-1-.27-1.4-.45-.39-.2-.72-.43-.99-.7-.27-.25-.48-.54-.64-.84-.16-.31-.27-.62-.33-.95-.07-.33-.11-.66-.11-.99s.04-.64.11-.96c.07-.33.17-.66.33-.95.16-.31.37-.59.64-.86s.6-.5.99-.7c.4-.2.87-.35,1.4-.45.55-.12,1.18-.17,1.89-.17,1.07,0,1.95.12,2.64.36.7.24,1.23.56,1.63.95.4.39.68.83.83,1.31.16.5.24.99.24,1.47s-.08.99-.24,1.47Z"/>
        <path class="cls-4" d="M397.14,98.02c-.23-.04-.47-.07-.7-.09-.24-.01-.48-.03-.71-.03-.6,0-1.18.07-1.73.2-.54.15-1.06.32-1.54.55-.5.24-.96.5-1.42.8-.44.29-.88.6-1.31.92v-2.14h-3.55v13.15h3.55v-7.92c.35-.33.72-.68,1.14-1,.41-.33.86-.63,1.34-.88.47-.25.99-.47,1.54-.62.56-.16,1.15-.24,1.79-.24.31,0,.6.01.9.05.28.04.55.09.79.15.24.05.45.11.64.16.19.05.32.09.41.13v-2.98c-.15-.04-.32-.08-.52-.12-.19-.03-.4-.07-.63-.09Z"/>
        <path class="cls-4" d="M417.33,99.11c-.67-.39-1.47-.67-2.41-.86-.94-.17-1.95-.27-3.05-.27-.56,0-1.15.03-1.77.08-.62.04-1.22.11-1.82.19s-1.18.17-1.73.28c-.56.11-1.06.21-1.51.33v3.16c.43-.16.91-.32,1.43-.48.52-.15,1.07-.28,1.66-.4.59-.11,1.19-.2,1.82-.27.63-.07,1.27-.11,1.91-.11.82,0,1.49.05,2.01.16.54.09.95.23,1.24.39.31.17.52.36.63.58.12.21.17.43.17.64v.28c-2.07.11-3.88.27-5.41.47-1.51.21-2.78.5-3.77.88-.99.37-1.74.86-2.22,1.45-.48.59-.72,1.32-.72,2.22,0,.7.15,1.28.45,1.78.32.48.72.87,1.23,1.18.51.29,1.1.51,1.77.64.66.13,1.34.2,2.05.2.6,0,1.2-.03,1.81-.09s1.18-.17,1.74-.31,1.1-.29,1.62-.48c.52-.2,1-.41,1.46-.67v1.3h3.56v-8.72c0-.8-.2-1.51-.58-2.09-.37-.59-.91-1.08-1.58-1.46ZM415.93,107.12c-.35.24-.74.47-1.18.68-.43.21-.9.4-1.39.56-.51.15-1.03.27-1.58.36-.56.09-1.12.13-1.71.13-.52,0-.95-.03-1.3-.09-.35-.07-.62-.15-.83-.25-.2-.11-.35-.24-.43-.39-.09-.13-.13-.28-.13-.44,0-.12.03-.27.07-.41.04-.16.15-.31.33-.47.17-.15.44-.29.8-.44.36-.15.86-.29,1.49-.41.64-.13,1.43-.24,2.38-.33s2.11-.17,3.48-.23v1.74Z"/>
        <polygon class="cls-4" points="443.92 107.37 440.55 98.23 436.6 98.23 433.16 107.17 429.6 98.23 425.91 98.23 431.2 111.38 435.14 111.38 438.57 102.54 442.01 111.38 445.96 111.38 451.24 98.23 447.55 98.23 443.92 107.37"/>
        <rect class="cls-4" x="451.92" y="98.23" width="3.56" height="13.15"/>
        <path class="cls-4" d="M472.6,99.13c-.48-.39-1.07-.7-1.77-.91-.71-.21-1.5-.32-2.38-.32-.71,0-1.39.07-2.02.19-.64.13-1.24.29-1.81.5-.58.21-1.11.44-1.62.7-.5.24-.98.5-1.42.76v-1.81h-3.56v13.15h3.56v-8.26c.36-.31.79-.6,1.27-.9.47-.28.96-.54,1.5-.75.52-.23,1.04-.4,1.58-.52.54-.13,1.04-.2,1.53-.2.64,0,1.16.08,1.57.23.4.16.72.39.95.67.23.28.37.63.47,1.02.08.4.12.84.12,1.34v7.37h3.55v-8.97c0-.68-.13-1.31-.39-1.87-.27-.55-.64-1.03-1.12-1.42Z"/>
        <path class="cls-4" d="M491.17,99.13c-.5-.39-1.08-.7-1.78-.91-.7-.21-1.5-.32-2.38-.32-.71,0-1.38.07-2.02.19-.64.13-1.24.29-1.81.5-.58.21-1.11.44-1.61.7-.51.24-.99.5-1.43.76v-1.81h-3.55v13.15h3.55v-8.26c.37-.31.79-.6,1.27-.9.47-.28.98-.54,1.5-.75.52-.23,1.04-.4,1.58-.52.54-.13,1.04-.2,1.53-.2.64,0,1.16.08,1.57.23.41.16.72.39.95.67.23.28.39.63.47,1.02.08.4.12.84.12,1.34v7.37h3.55v-8.97c0-.68-.13-1.31-.39-1.87-.25-.55-.63-1.03-1.11-1.42Z"/>
        <rect class="cls-4" x="495.16" y="98.23" width="3.55" height="13.15"/>
        <path class="cls-4" d="M515.83,99.13c-.5-.39-1.08-.7-1.78-.91-.7-.21-1.49-.32-2.38-.32-.71,0-1.38.07-2.02.19-.63.13-1.24.29-1.81.5-.56.21-1.11.44-1.61.7-.51.24-.98.5-1.43.76v-1.81h-3.55v13.15h3.55v-8.26c.37-.31.8-.6,1.27-.9.48-.28.98-.54,1.5-.75.52-.23,1.06-.4,1.58-.52.54-.13,1.04-.2,1.54-.2.63,0,1.15.08,1.55.23.41.16.72.39.95.67.23.28.39.63.47,1.02.08.4.12.84.12,1.34v7.37h3.55v-8.97c0-.68-.13-1.31-.39-1.87-.25-.55-.63-1.03-1.11-1.42Z"/>
        <path class="cls-4" d="M527.71,106.83h3.99v1.59c-.24.07-.48.13-.71.2-.21.07-.47.12-.72.16-.25.04-.55.08-.86.11-.31.03-.68.04-1.1.04-.84,0-1.57-.07-2.17-.2-.6-.13-1.12-.31-1.55-.52-.43-.21-.78-.47-1.04-.75-.27-.28-.48-.58-.63-.87-.16-.31-.25-.62-.31-.92-.05-.31-.08-.59-.08-.86,0-.29.03-.6.09-.92.07-.32.17-.63.35-.94.16-.31.39-.6.67-.87.29-.27.66-.51,1.11-.71.44-.21.98-.37,1.61-.5.63-.12,1.35-.17,2.19-.17.68,0,1.32.04,1.94.13.62.08,1.19.2,1.73.35.54.15,1.03.32,1.49.51.45.19.87.39,1.23.59v-3.21c-.92-.35-1.94-.63-3.05-.84-1.11-.23-2.3-.33-3.6-.33-.83,0-1.65.05-2.44.17-.79.11-1.53.29-2.22.54-.68.23-1.32.54-1.9.91-.58.37-1.07.8-1.49,1.32-.41.51-.74,1.1-.96,1.75-.23.67-.35,1.4-.35,2.22s.12,1.57.33,2.23c.23.66.54,1.24.92,1.75.4.51.88.95,1.46,1.32.56.36,1.19.67,1.87.91s1.42.41,2.21.54c.79.11,1.62.16,2.49.16.55,0,1.14-.01,1.77-.07.63-.05,1.24-.12,1.87-.21.62-.09,1.22-.21,1.81-.33.59-.13,1.11-.28,1.59-.44v-6.72h-7.55v2.88Z"/>
        <polygon class="cls-4" points="546.96 106.02 556.12 106.02 556.12 103.21 546.96 103.21 546.96 101.04 556.63 101.04 556.63 98.23 543.3 98.23 543.3 111.38 556.76 111.38 556.76 108.57 546.96 108.57 546.96 106.02"/>
        <path class="cls-4" d="M573.67,100.85c-.33-.48-.74-.9-1.2-1.23-.47-.33-1-.6-1.58-.8-.58-.21-1.19-.36-1.86-.45s-1.35-.13-2.07-.13h-8.34v13.15h8.35c.72,0,1.42-.04,2.09-.13.66-.09,1.27-.24,1.85-.45.58-.2,1.1-.47,1.57-.8.47-.35.87-.75,1.2-1.24.35-.48.6-1.06.79-1.7.19-.66.28-1.4.28-2.25s-.09-1.58-.28-2.23c-.19-.66-.44-1.22-.79-1.71ZM570.91,106.45c-.16.47-.43.86-.79,1.16-.36.31-.83.54-1.4.68-.59.15-1.3.23-2.13.23h-4.42v-7.43h4.42c.83,0,1.54.08,2.13.23.58.15,1.04.37,1.4.68.36.29.63.68.79,1.15.16.47.24,1.02.24,1.65s-.08,1.18-.24,1.65Z"/>
        <path class="cls-4" d="M584.29,106.83h3.99v1.59c-.24.07-.48.13-.71.2-.21.07-.47.12-.72.16-.25.04-.55.08-.86.11s-.68.04-1.1.04c-.84,0-1.57-.07-2.17-.2-.6-.13-1.12-.31-1.55-.52-.43-.21-.79-.47-1.06-.75s-.47-.58-.62-.87c-.16-.31-.25-.62-.31-.92-.05-.31-.08-.59-.08-.86,0-.29.03-.6.09-.92s.17-.63.33-.94c.17-.31.4-.6.68-.87.29-.27.66-.51,1.11-.71.44-.21.98-.37,1.61-.5.62-.12,1.35-.17,2.19-.17.68,0,1.32.04,1.94.13.62.08,1.19.2,1.73.35.54.15,1.03.32,1.49.51.45.19.87.39,1.23.59v-3.21c-.92-.35-1.94-.63-3.05-.84-1.11-.23-2.3-.33-3.6-.33-.83,0-1.65.05-2.44.17-.79.11-1.53.29-2.22.54-.68.23-1.32.54-1.9.91-.58.37-1.07.8-1.49,1.32-.41.51-.74,1.1-.96,1.75-.23.67-.35,1.4-.35,2.22s.12,1.57.33,2.23c.21.66.54,1.24.92,1.75.4.51.88.95,1.45,1.32.58.36,1.19.67,1.89.91.68.24,1.42.41,2.21.54.79.11,1.62.16,2.49.16.55,0,1.14-.01,1.77-.07.63-.05,1.24-.12,1.87-.21.62-.09,1.22-.21,1.81-.33.59-.13,1.11-.28,1.58-.44v-6.72h-7.53v2.88Z"/>
        <path class="cls-4" d="M607.59,99.81c-.71-.63-1.57-1.11-2.56-1.43s-2.09-.48-3.28-.48c-1.3,0-2.48.17-3.53.54-1.04.35-1.94.84-2.69,1.47-.75.63-1.32,1.36-1.73,2.22-.4.84-.6,1.78-.6,2.77,0,1.07.2,2.03.6,2.88.4.86.99,1.57,1.75,2.15.76.59,1.71,1.04,2.82,1.35,1.12.31,2.4.45,3.84.45,1.12,0,2.22-.07,3.29-.23,1.08-.16,2.15-.41,3.24-.78v-3.06c-.27.16-.63.32-1.06.47-.44.16-.94.31-1.47.44-.55.13-1.12.24-1.75.32s-1.27.12-1.91.12c-.92,0-1.71-.07-2.37-.2-.67-.13-1.22-.33-1.67-.58-.45-.24-.82-.54-1.08-.87-.25-.35-.45-.74-.56-1.15h12.95v-.87c0-1.22-.19-2.27-.58-3.2-.4-.94-.95-1.71-1.66-2.34ZM596.87,103.62c.07-.29.2-.6.41-.94.21-.35.52-.66.92-.95.39-.29.87-.54,1.46-.74.58-.2,1.27-.29,2.06-.29.86,0,1.57.08,2.13.27.58.19,1.03.41,1.38.7.35.28.62.59.78.94s.25.68.29,1.02h-9.43Z"/>
        <path class="cls-5" d="M371.25,50.35v6.09c.39-.19.79-.37,1.22-.56.48-.2.99-.4,1.53-.58.99-.33,2.03-.62,3.1-.86,1.06-.23,2.14-.41,3.24-.55,1.1-.13,2.14-.2,3.16-.2,1.08,0,2.02.07,2.8.2.76.13,1.42.29,1.94.51.52.2.92.44,1.23.71.29.28.52.56.68.83.15.28.25.56.29.83.04.27.07.51.07.72,0,.75-.39,1.54-1.18,2.36-.79.82-1.98,1.71-3.59,2.69-1.62.99-3.65,2.09-6.1,3.29-2.09,1.02-4.47,2.15-7.17,3.4-.5.23-1,.45-1.51.7v4.59h27.04v-5.54h-14.55c1.91-.94,3.59-1.81,5.03-2.58,1.45-.78,2.69-1.5,3.72-2.17,1.04-.67,1.9-1.31,2.58-1.91.67-.6,1.22-1.2,1.61-1.81.4-.59.68-1.2.84-1.83.15-.63.23-1.3.23-2.02,0-1.31-.32-2.48-.95-3.52-.62-1.04-1.53-1.93-2.72-2.65-1.19-.72-2.64-1.28-4.36-1.67-1.71-.39-3.65-.58-5.83-.58-2.33,0-4.54.2-6.64.6-1.61.32-3.12.68-4.5,1.12-.41.12-.83.25-1.22.39Z"/>
      </g>
    </g>
  </g>
</svg>