<svg width="66" height="66" viewBox="0 0 66 66" fill="none" xmlns="http://www.w3.org/2000/svg">
<rect width="66" height="66" rx="33" transform="matrix(-1 0 0 1 66 0)" fill="white" fill-opacity="0.05"/>
<rect x="-0.764285" y="0.764285" width="64.4714" height="64.4714" rx="32.2357" transform="matrix(-1 0 0 1 64.4714 0)" stroke="white" stroke-opacity="0.2" stroke-width="1.52857"/>
<path d="M46.7144 19.8572H19.2858C19.1342 19.8572 18.9889 19.9174 18.8817 20.0245C18.7746 20.1317 18.7144 20.2771 18.7144 20.4286V39.8572C18.7144 40.0087 18.7746 40.1541 18.8817 40.2612C18.9889 40.3684 19.1342 40.4286 19.2858 40.4286H30.0172L29.1029 45H27.2858V46.1429H38.7144V45H36.8972L35.9829 40.4286H46.7144C46.8659 40.4286 47.0113 40.3684 47.1184 40.2612C47.2256 40.1541 47.2858 40.0087 47.2858 39.8572V20.4286C47.2858 20.2771 47.2256 20.1317 47.1184 20.0245C47.0113 19.9174 46.8659 19.8572 46.7144 19.8572ZM46.1429 21V37H19.8572V21H46.1429ZM35.7315 45H30.2686L31.1829 40.4286H34.8172L35.7315 45ZM35.2858 39.2857H19.8572V38.1429H46.1429V39.2857H35.2858Z" fill="white"/>
<path d="M26.143 33.5715H26.7144V35.2858H27.8572V33.5715H28.4287C28.5802 33.5715 28.7256 33.5113 28.8327 33.4041C28.9399 33.297 29.0001 33.1516 29.0001 33.0001V27.2858C29.0001 27.1342 28.9399 26.9889 28.8327 26.8817C28.7256 26.7746 28.5802 26.7144 28.4287 26.7144H27.8572V25.0001H26.7144V26.7144H26.143C25.9914 26.7144 25.8461 26.7746 25.7389 26.8817C25.6317 26.9889 25.5715 27.1342 25.5715 27.2858V33.0001C25.5715 33.1516 25.6317 33.297 25.7389 33.4041C25.8461 33.5113 25.9914 33.5715 26.143 33.5715ZM26.7144 27.8572H27.8572V32.4286H26.7144V27.8572ZM31.8572 31.2858H32.3978L32.4287 33.0104L33.5715 32.9898L33.5407 31.2858H34.143C34.2945 31.2858 34.4399 31.2256 34.547 31.1184C34.6542 31.0113 34.7144 30.8659 34.7144 30.7144V25.0001C34.7144 24.8485 34.6542 24.7032 34.547 24.596C34.4399 24.4888 34.2945 24.4286 34.143 24.4286H33.5715V22.7144H32.4287V24.4286H31.8572C31.7057 24.4286 31.5603 24.4888 31.4532 24.596C31.346 24.7032 31.2858 24.8485 31.2858 25.0001V30.7144C31.2858 30.8659 31.346 31.0113 31.4532 31.1184C31.5603 31.2256 31.7057 31.2858 31.8572 31.2858ZM32.4287 25.5715H33.5715V30.1429H32.4287V25.5715ZM37.5715 33.5715H38.143V35.2858H39.2858V33.5715H39.8572C40.0088 33.5715 40.1541 33.5113 40.2613 33.4041C40.3685 33.297 40.4287 33.1516 40.4287 33.0001V27.2858C40.4287 27.1342 40.3685 26.9889 40.2613 26.8817C40.1541 26.7746 40.0088 26.7144 39.8572 26.7144H39.2858V25.0001H38.143V26.7144H37.5715C37.42 26.7144 37.2746 26.7746 37.1675 26.8817C37.0603 26.9889 37.0001 27.1342 37.0001 27.2858V33.0001C37.0001 33.1516 37.0603 33.297 37.1675 33.4041C37.2746 33.5113 37.42 33.5715 37.5715 33.5715ZM38.143 27.8572H39.2858V32.4286H38.143V27.8572Z" fill="white"/>
</svg>
