<svg width="66" height="66" viewBox="0 0 66 66" fill="none" xmlns="http://www.w3.org/2000/svg">
<rect width="66" height="66" rx="33" transform="matrix(-1 0 0 1 66 0)" fill="white" fill-opacity="0.05"/>
<rect x="-0.764285" y="0.764285" width="64.4714" height="64.4714" rx="32.2357" transform="matrix(-1 0 0 1 64.4714 0)" stroke="white" stroke-opacity="0.2" stroke-width="1.52857"/>
<path d="M39.8872 23.5415C38.8356 22.5949 37.5936 21.8841 36.2446 21.4571C34.8957 21.03 33.471 20.8965 32.0662 21.0655C30.1968 21.2825 28.4266 22.0231 26.9595 23.2018C25.4925 24.3806 24.3881 25.9497 23.7735 27.7284C23.1589 29.5072 23.0591 31.4234 23.4856 33.2564C23.912 35.0894 24.8475 36.7647 26.1842 38.0895C26.5093 38.4019 26.7689 38.776 26.9478 39.1899C27.1267 39.6038 27.2214 40.0491 27.2262 40.5V42.5C27.2272 43.1232 27.4222 43.7306 27.7839 44.2381C28.1457 44.7455 28.6564 45.1278 29.2452 45.332C29.4372 47.1065 31.1502 48.5 33.2262 48.5C35.3022 48.5 37.0147 47.1065 37.2067 45.332C37.7956 45.128 38.3064 44.7457 38.6683 44.2382C39.0301 43.7308 39.2251 43.1233 39.2262 42.5V40.5C39.2295 40.0515 39.3224 39.6082 39.4994 39.1961C39.6763 38.784 39.9338 38.4113 40.2567 38.1C41.2277 37.1411 41.9919 35.9934 42.5021 34.7277C43.0123 33.4619 43.2577 32.105 43.223 30.7408C43.1884 29.3765 42.8745 28.0339 42.3008 26.7956C41.727 25.5574 40.9056 24.4499 39.8872 23.5415ZM28.2262 41.5H38.2262V42.5H28.2262V41.5ZM33.2262 47.5C32.5859 47.535 31.9519 47.358 31.4223 46.9965C30.8926 46.635 30.4969 46.109 30.2962 45.5H36.1657C35.8867 46.6395 34.6747 47.5 33.2262 47.5ZM36.2262 44.5H30.2262C29.8767 44.4989 29.5336 44.4059 29.2314 44.2304C28.9291 44.0549 28.6783 43.803 28.5042 43.5H37.9502C37.7758 43.8033 37.5247 44.0554 37.2221 44.2309C36.9195 44.4065 36.576 44.4993 36.2262 44.5ZM39.5537 37.389C39.1364 37.793 38.804 38.2763 38.576 38.8106C38.3481 39.3448 38.2291 39.9192 38.2262 40.5H28.2262C28.2219 39.917 28.1013 39.3408 27.8716 38.805C27.6418 38.2691 27.3075 37.7845 26.8882 37.3795C25.6855 36.1874 24.8438 34.6801 24.4599 33.0308C24.0761 31.3815 24.1656 29.6574 24.7183 28.0567C25.271 26.4561 26.2643 25.044 27.584 23.983C28.9037 22.922 30.4962 22.255 32.1782 22.059C32.5303 22.0196 32.8843 21.9999 33.2387 22C35.4476 21.9936 37.5799 22.8091 39.2207 24.288C40.137 25.1054 40.8761 26.102 41.3923 27.2161C41.9085 28.3303 42.191 29.5384 42.2222 30.7659C42.2534 31.9935 42.0327 33.2144 41.5737 34.3533C41.1148 35.4923 40.4273 36.5251 39.5537 37.388V37.389Z" fill="white"/>
<path d="M41.033 29.605L38.9 27.947C37.2774 26.6852 35.2805 26.0002 33.225 26.0002C31.1695 26.0002 29.1727 26.6852 27.55 27.947L25.419 29.605C25.3588 29.6517 25.3101 29.7116 25.2765 29.7801C25.243 29.8485 25.2256 29.9238 25.2256 30C25.2256 30.0762 25.243 30.1514 25.2765 30.2199C25.3101 30.2884 25.3588 30.3483 25.419 30.395L27.55 32.053C29.1727 33.3147 31.1695 33.9998 33.225 33.9998C35.2805 33.9998 37.2774 33.3147 38.9 32.053L41.032 30.395C41.0923 30.3483 41.141 30.2884 41.1745 30.2199C41.208 30.1514 41.2255 30.0762 41.2255 30C41.2255 29.9238 41.208 29.8485 41.1745 29.7801C41.141 29.7116 41.0923 29.6517 41.032 29.605H41.033ZM36.226 30C36.226 30.5933 36.0501 31.1734 35.7204 31.6667C35.3908 32.1601 34.9223 32.5446 34.3741 32.7716C33.8259 32.9987 33.2227 33.0581 32.6408 32.9424C32.0588 32.8266 31.5243 32.5409 31.1047 32.1213C30.6852 31.7018 30.3994 31.1672 30.2837 30.5853C30.1679 30.0033 30.2273 29.4001 30.4544 28.8519C30.6815 28.3038 31.066 27.8352 31.5593 27.5056C32.0527 27.1759 32.6327 27 33.226 27C34.0214 27.0009 34.7839 27.3173 35.3463 27.8797C35.9087 28.4421 36.2251 29.2046 36.226 30ZM26.5405 30L28.165 28.7365C28.722 28.3046 29.3324 27.9463 29.981 27.6705C29.4903 28.3481 29.2261 29.1634 29.2261 30C29.2261 30.8366 29.4903 31.6519 29.981 32.3295C29.3324 32.0537 28.722 31.6954 28.165 31.2635L26.5405 30ZM38.287 31.2635C37.73 31.6953 37.1196 32.0536 36.471 32.3295C36.9618 31.6519 37.226 30.8366 37.226 30C37.226 29.1634 36.9618 28.3481 36.471 27.6705C37.1196 27.9464 37.73 28.3047 38.287 28.7365L39.9115 30L38.287 31.2635Z" fill="white"/>
<path d="M33.2261 32.5C33.7205 32.5 34.2039 32.3534 34.615 32.0787C35.0261 31.804 35.3466 31.4135 35.5358 30.9567C35.725 30.4999 35.7745 29.9972 35.678 29.5123C35.5816 29.0273 35.3435 28.5819 34.9938 28.2322C34.6442 27.8826 34.1988 27.6445 33.7138 27.548C33.2288 27.4516 32.7262 27.5011 32.2694 27.6903C31.8126 27.8795 31.4221 28.2 31.1474 28.6111C30.8727 29.0222 30.7261 29.5055 30.7261 30C30.7269 30.6628 30.9905 31.2982 31.4592 31.7669C31.9279 32.2356 32.5633 32.4992 33.2261 32.5ZM34.2261 29C34.2275 29.0917 34.2036 29.182 34.1571 29.261C34.1107 29.3401 34.0433 29.4048 33.9625 29.4482C33.8817 29.4915 33.7906 29.5118 33.699 29.5069C33.6074 29.5019 33.519 29.4718 33.4434 29.42C33.3677 29.3681 33.3078 29.2964 33.2702 29.2128C33.2326 29.1292 33.2186 29.0368 33.23 28.9458C33.2413 28.8548 33.2774 28.7687 33.3344 28.6969C33.3914 28.625 33.467 28.5702 33.5531 28.5385C33.7913 28.593 34.0123 28.7055 34.1966 28.866C34.2126 28.9091 34.2226 28.9542 34.2261 29ZM32.2366 28.8815C32.2331 28.921 32.2261 28.9595 32.2261 29C32.2247 29.2888 32.3072 29.5717 32.4634 29.8146C32.6196 30.0574 32.8429 30.2498 33.1062 30.3683C33.3695 30.4869 33.6616 30.5265 33.9469 30.4824C34.2323 30.4383 34.4988 30.3124 34.7141 30.12C34.6955 30.3647 34.617 30.6011 34.4855 30.8083C34.3541 31.0155 34.1736 31.1872 33.9602 31.3082C33.7467 31.4292 33.5067 31.4959 33.2614 31.5023C33.0161 31.5087 32.7729 31.4546 32.5534 31.3449C32.3339 31.2352 32.1448 31.0731 32.0027 30.873C31.8606 30.673 31.7699 30.441 31.7386 30.1976C31.7073 29.9542 31.7363 29.7069 31.8232 29.4774C31.91 29.2478 32.052 29.0432 32.2366 28.8815Z" fill="white"/>
<path d="M33.7261 17.5H32.7261V20H33.7261V17.5Z" fill="white"/>
<path d="M46.7261 30H44.2261V31H46.7261V30Z" fill="white"/>
<path d="M22.2261 30H19.7261V31H22.2261V30Z" fill="white"/>
<path d="M43.372 20.1466L40.8721 22.6466L41.5792 23.3537L44.0792 20.8537L43.372 20.1466Z" fill="white"/>
<path d="M23.0792 20.1463L22.3721 20.8534L24.872 23.3534L25.5792 22.6463L23.0792 20.1463Z" fill="white"/>
<path d="M42.5792 37.1459L41.8721 37.853L44.372 40.353L45.0792 39.6459L42.5792 37.1459Z" fill="white"/>
<path d="M23.872 37.1466L21.3721 39.6466L22.0792 40.3537L24.5792 37.8537L23.872 37.1466Z" fill="white"/>
</svg>
