<svg width="36" height="36" viewBox="0 0 36 36" fill="none" xmlns="http://www.w3.org/2000/svg">
<rect width="36" height="36" rx="18" transform="matrix(-1 0 0 1 36 0)" fill="white" fill-opacity="0.05"/>
<rect x="-0.764285" y="0.764285" width="34.4714" height="34.4714" rx="17.2357" transform="matrix(-1 0 0 1 34.4714 0)" stroke="white" stroke-opacity="0.2" stroke-width="1.52857"/>
<path d="M21.9648 25H12.5376C12.5376 22.504 14.0544 20.776 16.5888 19.2016C18.8352 17.8384 19.968 17.2816 19.968 15.5152C19.968 14.4208 19.5264 13.2496 17.7216 13.2496C15.648 13.2496 14.9952 14.5936 14.9952 16.4176H12.8832C12.8832 13.5952 14.4192 11.464 17.7792 11.464C20.1792 11.464 22.1184 12.904 22.1184 15.4384C22.1184 18.0112 20.0256 19.336 18.1248 20.5072C16.8192 21.2752 15.5904 22.0048 15.2064 23.176V23.2144H21.9648V25Z" fill="white"/>
</svg>
