<svg width="36" height="36" viewBox="0 0 36 36" fill="none" xmlns="http://www.w3.org/2000/svg">
<rect width="36" height="36" rx="18" transform="matrix(-1 0 0 1 36 0)" fill="white" fill-opacity="0.05"/>
<rect x="-0.764285" y="0.764285" width="34.4714" height="34.4714" rx="17.2357" transform="matrix(-1 0 0 1 34.4714 0)" stroke="white" stroke-opacity="0.2" stroke-width="1.52857"/>
<path d="M17.952 25.2688C14.5344 25.2688 12.6144 23.5024 12.6144 20.4688H14.7264C14.7264 22.2928 15.4944 23.4832 17.8176 23.4832C19.9104 23.4832 20.6208 22.6384 20.6208 21.2176C20.6208 19.3936 19.3152 18.952 17.9712 18.952H16.7232V17.2432H17.8944C19.2192 17.2432 20.16 16.648 20.16 15.208C20.16 14.1712 19.5264 13.2496 17.8944 13.2496C15.648 13.2496 15.0912 14.44 15.0912 15.7264H12.9792C12.9792 13.2688 14.6496 11.464 17.9136 11.464C20.2752 11.464 22.3104 12.7696 22.3104 15.112C22.3104 16.5328 21.5808 17.416 20.3136 17.9536V17.992C22.0608 18.5488 22.7712 19.7008 22.7712 21.256C22.7712 23.8288 20.8704 25.2688 17.952 25.2688Z" fill="white"/>
</svg>
